HIERARCHY
ROOT hips_JNT
{
  OFFSET 0.0 0.0 0.0
  CHANNELS 6 Xposition Yposition Zposition Zrotation Xrotation Yrotation
  JOINT spine_JNT
  {
    OFFSET -0.000424 -2.543418169 9.319808006
    CHANNELS 3 Zrotation Xrotation Yrotation
    JOINT spine1_JNT
    {
      OFFSET -0.0 4.6014e-05 10.873098373
      CHANNELS 0 
      JOINT spine2_JNT
      {
        OFFSET -0.0 5.951159954 12.426398277
        CHANNELS 3 Zrotation Xrotation Yrotation
        JOINT neck_JNT
        {
          OFFSET -0.0 1.46048069 13.979696274
          CHANNELS 3 Zrotation Xrotation Yrotation
          JOINT head_JNT
          {
            OFFSET -0.0 -2.091498852 5.870200634
            CHANNELS 3 Zrotation Xrotation Yrotation
            End Site
            {
              OFFSET -0.0 -0.627449393 1.761060357
            }
          }
        }
        JOINT l_shoulder_JNT
        {
          OFFSET 4.399139881 1.485010624 12.860998154
          CHANNELS 0 
          JOINT l_arm_JNT
          {
            OFFSET 8.757349968 0.049051583 -2.311980963
            CHANNELS 3 Zrotation Xrotation Yrotation
            JOINT l_forearm_JNT
            {
              OFFSET 26.900102615 -1.2827e-05 -4.5882e-05
              CHANNELS 3 Zrotation Xrotation Yrotation
              JOINT l_hand_JNT
              {
                OFFSET 23.014799118 2.208e-06 -4.5899e-05
                CHANNELS 3 Zrotation Xrotation Yrotation
                JOINT l_handThumb1_JNT
                {
                  OFFSET 3.629997015 -2.130000114 -0.779999137
                  CHANNELS 0 
                  JOINT l_handThumb2_JNT
                  {
                    OFFSET 3.551140547 -2.240059376 -2.118370533
                    CHANNELS 0 
                    JOINT l_handThumb3_JNT
                    {
                      OFFSET 2.159111738 -0.963467896 -1.11631012
                      CHANNELS 0 
                      End Site
                      {
                        OFFSET 0.647733569 -0.289040536 -0.334893018
                      }
                    }
                  }
                }
                JOINT l_handIndex1_JNT
                {
                  OFFSET 10.514901161 -2.197570086 -0.041019067
                  CHANNELS 0 
                  JOINT l_handIndex2_JNT
                  {
                    OFFSET 2.75183177 0.139053389 -0.102867015
                    CHANNELS 0 
                    JOINT l_handIndex3_JNT
                    {
                      OFFSET 2.353012562 0.090486437 -0.073399
                      CHANNELS 0 
                      End Site
                      {
                        OFFSET 0.705903769 0.027145931 -0.022019701
                      }
                    }
                  }
                }
                JOINT l_handMiddle1_JNT
                {
                  OFFSET 10.067101479 -0.059572894 0.139202058
                  CHANNELS 0 
                  JOINT l_handMiddle2_JNT
                  {
                    OFFSET 3.909027576 0.119065963 -0.288403004
                    CHANNELS 0 
                    JOINT l_handMiddle3_JNT
                    {
                      OFFSET 2.32840085 0.059439652 -0.019107981
                      CHANNELS 0 
                      End Site
                      {
                        OFFSET 0.698520303 0.017831825 -0.005732394
                      }
                    }
                  }
                }
                JOINT l_handRing1_JNT
                {
                  OFFSET 9.468109131 1.809830785 0.132240131
                  CHANNELS 0 
                  JOINT l_handRing2_JNT
                  {
                    OFFSET 3.281532049 0.033936869 -0.224051952
                    CHANNELS 0 
                    JOINT l_handRing3_JNT
                    {
                      OFFSET 2.245003462 0.008389018 -0.070213005
                      CHANNELS 0 
                      End Site
                      {
                        OFFSET 0.673501074 0.002516777 -0.021063901
                      }
                    }
                  }
                }
                JOINT l_handPinky1_JNT
                {
                  OFFSET 8.490768433 3.584150553 -0.077769808
                  CHANNELS 0 
                  JOINT l_handPinky2_JNT
                  {
                    OFFSET 2.532173157 0.017040448 -0.073073991
                    CHANNELS 0 
                    JOINT l_handPinky3_JNT
                    {
                      OFFSET 1.951210499 -0.017009472 0.025116015
                      CHANNELS 0 
                      End Site
                      {
                        OFFSET 0.58536315 -0.005102842 0.007534805
                      }
                    }
                  }
                }
              }
            }
          }
        }
        JOINT r_shoulder_JNT
        {
          OFFSET -4.397819996 1.485010743 12.860598564
          CHANNELS 0 
          JOINT r_arm_JNT
          {
            OFFSET -8.757320404 0.049051426 -2.31200099
            CHANNELS 3 Zrotation Xrotation Yrotation
            JOINT r_forearm_JNT
            {
              OFFSET -26.900005341 -1.2219e-05 -2.462e-06
              CHANNELS 3 Zrotation Xrotation Yrotation
              JOINT r_hand_JNT
              {
                OFFSET -23.014904022 -6.323e-06 -2.107e-06
                CHANNELS 3 Zrotation Xrotation Yrotation
                JOINT r_handThumb1_JNT
                {
                  OFFSET -3.629997015 -2.130002975 -0.779999495
                  CHANNELS 0 
                  JOINT r_handThumb2_JNT
                  {
                    OFFSET -3.55120182 -2.240064621 -2.118001223
                    CHANNELS 0 
                    JOINT r_handThumb3_JNT
                    {
                      OFFSET -2.159103394 -0.963468254 -1.116001487
                      CHANNELS 0 
                      End Site
                      {
                        OFFSET -0.647731066 -0.289040416 -0.334800452
                      }
                    }
                  }
                }
                JOINT r_handIndex1_JNT
                {
                  OFFSET -10.514903069 -2.197566986 -0.040998124
                  CHANNELS 0 
                  JOINT r_handIndex2_JNT
                  {
                    OFFSET -2.751802206 0.139048159 -0.102997296
                    CHANNELS 0 
                    JOINT r_handIndex3_JNT
                    {
                      OFFSET -2.352998257 0.090488635 -0.07300625
                      CHANNELS 0 
                      End Site
                      {
                        OFFSET -0.705899477 0.027146591 -0.021901878
                      }
                    }
                  }
                }
                JOINT r_handMiddle1_JNT
                {
                  OFFSET -10.067105293 -0.059575193 0.139998019
                  CHANNELS 0 
                  JOINT r_handMiddle2_JNT
                  {
                    OFFSET -3.909104347 0.119068667 -0.288998425
                    CHANNELS 0 
                    JOINT r_handMiddle3_JNT
                    {
                      OFFSET -2.328400612 0.059438411 -0.019001223
                      CHANNELS 0 
                      End Site
                      {
                        OFFSET -0.698520184 0.017831525 -0.005700367
                      }
                    }
                  }
                }
                JOINT r_handRing1_JNT
                {
                  OFFSET -9.46810627 1.809824586 0.133002236
                  CHANNELS 0 
                  JOINT r_handRing2_JNT
                  {
                    OFFSET -3.281602144 0.033936866 -0.224995404
                    CHANNELS 0 
                    JOINT r_handRing3_JNT
                    {
                      OFFSET -2.245003939 0.008389308 -0.070000261
                      CHANNELS 0 
                      End Site
                      {
                        OFFSET -0.673501194 0.002516649 -0.021000076
                      }
                    }
                  }
                }
                JOINT r_handPinky1_JNT
                {
                  OFFSET -8.490804672 3.584145784 -0.076996565
                  CHANNELS 0 
                  JOINT r_handPinky2_JNT
                  {
                    OFFSET -2.532204866 0.017038271 -0.074005239
                    CHANNELS 0 
                    JOINT r_handPinky3_JNT
                    {
                      OFFSET -1.951202989 -0.017011244 0.026000841
                      CHANNELS 0 
                      End Site
                      {
                        OFFSET -0.585360944 -0.005103481 0.007800251
                      }
                    }
                  }
                }
              }
            }
          }
        }
      }
    }
  }
  JOINT l_upleg_JNT
  {
    OFFSET 10.061400414 0.706233501 -5.185750008
    CHANNELS 3 Zrotation Xrotation Yrotation
    JOINT l_leg_JNT
    {
      OFFSET -0.348571867 0.819178462 -45.582382202
      CHANNELS 3 Zrotation Xrotation Yrotation
      JOINT l_foot_JNT
      {
        OFFSET 0.349144816 1.708507657 -42.33247757
        CHANNELS 3 Zrotation Xrotation Yrotation
        JOINT l_toebase_JNT
        {
          OFFSET 0.07027097 -12.888691902 -8.126660347
          CHANNELS 3 Zrotation Xrotation Yrotation
          End Site
          {
            OFFSET 0.021081284 -3.866608381 -2.437997341
          }
        }
      }
    }
  }
  JOINT r_upleg_JNT
  {
    OFFSET -10.06099987 0.70623374 -5.185770035
    CHANNELS 3 Zrotation Xrotation Yrotation
    JOINT r_leg_JNT
    {
      OFFSET 0.348579884 0.819166601 -45.582389832
      CHANNELS 3 Zrotation Xrotation Yrotation
      JOINT r_foot_JNT
      {
        OFFSET -0.349179864 1.708495259 -42.332492828
        CHANNELS 3 Zrotation Xrotation Yrotation
        JOINT r_toebase_JNT
        {
          OFFSET -0.070200011 -12.888694763 -8.126663208
          CHANNELS 3 Zrotation Xrotation Yrotation
          End Site
          {
            OFFSET -0.021059996 -3.866609335 -2.437997818
          }
        }
      }
    }
  }
}
MOTION
Frames: 9
Frame Time: 0.03333333333333333
-0.049462996 0.029258728 77.904327393 16.041038513 1.387622237 4.62886095 5.201e-05 -0.012608446 0.250693023 4.642639637 -0.007063463 -2.878265858 -3.604199409 8.792819023 -5.044705868 7.490390301 39.108791351 -17.586496353 -42.398174286 0.837506652 -23.812156677 -84.404266357 38.706478119 -42.346004486 89.999992371 -3.5858e-05 60.966495514 103.951148987 -27.608125687 -14.481168747 48.07818222 17.485233307 38.045269012 -90.000015259 1.8783e-05 85.292831421 -21.174552917 -47.647174835 -26.626585007 95.251274109 71.047782898 -95.868423462 -9.750733376 -2.136413336 -8.675400734 -11.555408478 -36.225860596 -3.791422606 9.942314148 -40.117313385 29.830196381 -4.20028162 75.145500183 3.631311178 -0.822013557 4.503355503 2.517596245 10.66331768 -30.940347672 2.95883894 
-0.049462996 0.029258728 77.904327393 16.041038513 1.387622237 4.62886095 5.201e-05 -0.012608446 0.250693023 4.642639637 -0.007063463 -2.878265858 -3.604199409 8.792819023 -5.044705868 7.490390301 39.108791351 -17.586496353 -42.398174286 0.837506652 -23.812156677 -84.404266357 38.706478119 -42.346004486 90.0 -3.2443e-05 60.966583252 103.951148987 -27.608125687 -14.481168747 48.07818222 17.485233307 38.045269012 -90.000030518 1.708e-06 85.292640686 -21.174552917 -47.647174835 -26.626585007 95.251274109 71.047782898 -95.868423462 -9.750734329 -2.136414289 -8.67538929 -11.555405617 -36.225860596 -3.791422606 9.942314148 -40.117313385 29.830196381 -4.20028162 75.145500183 3.631311178 -0.822013557 4.503355503 2.517596245 10.66331768 -30.940347672 2.95883894 
-0.193617001 0.016643524 77.902526855 16.252832413 1.158742905 4.41912508 7.801e-05 -0.013001087 0.356945008 4.921058178 -0.006349715 -2.770451784 -3.42770195 8.42391777 -4.787003517 7.911381721 39.249084473 -18.50479126 -45.879360199 -5.115562916 -23.951797485 -94.123474121 32.591537476 -30.435121536 90.0 -6.83e-06 57.424610138 100.559906006 -35.311786652 -16.134578705 55.128669739 15.935702324 30.020498276 -90.000030518 0.000184415 91.401832581 -24.221849442 -46.6326828 -27.350719452 97.443618774 74.536743164 -97.881416321 -8.449718475 -1.085798025 -6.634243011 -11.459364891 -38.288787842 -3.989904165 10.018406868 -39.958278656 30.072759628 -2.950402975 75.424560547 2.412924528 -1.035639882 4.704453945 2.351304054 10.745535851 -31.295629501 3.017802715 
-0.411707014 -0.059955597 77.869132996 16.445932388 0.886806488 4.081706047 0.000118972 -0.011443518 0.595007062 5.096182346 -0.004740658 -2.706442118 -2.932879925 7.909167767 -4.083505154 8.71349144 39.258094788 -20.346279144 -48.748809814 -9.879172325 -24.050188065 -99.480682373 26.498037338 -22.552829742 89.999984741 -1.5368e-05 54.624443054 97.139274597 -41.662994385 -18.379575729 60.31609726 13.836038589 23.59028244 -90.000030518 -1.1953e-05 96.605148315 -26.526908875 -45.675590515 -27.691293716 99.714546204 77.380439758 -99.987785339 -7.52317524 -0.376914322 -4.835118294 -11.240828514 -39.91897583 -4.093780041 10.101391792 -39.853721619 30.420583725 -2.272647381 75.872421265 1.753774405 -1.231414199 4.82179451 2.327900887 10.842087746 -31.590133667 3.075127125 
-0.663470984 -0.217433929 77.800140381 16.613008499 0.609683037 3.903434753 9.9024e-05 -0.00792938 0.72465384 5.234567165 -0.00375539 -2.730998993 -2.383129597 7.379498005 -3.308594704 9.621250153 39.168807983 -22.467760086 -51.044155121 -13.747552872 -23.942148209 -102.653991699 21.049331665 -16.915636063 89.999984741 6.83e-06 52.473644257 93.663154602 -46.66015625 -20.885225296 64.015296936 11.575605392 18.422239304 -90.000015259 -8.538e-06 100.817626953 -28.408721924 -44.73349762 -28.077636719 102.428878784 79.59362793 -102.571960449 -6.857563019 0.004180009 -3.353425026 -11.00254631 -41.151760101 -4.141308308 10.096105576 -39.759151459 30.515356064 -1.80431962 76.401168823 1.298339844 -1.407981873 4.914901257 2.338091373 10.980817795 -31.959913254 3.153162718 
-0.883520007 -0.437179565 77.711135864 16.763677597 0.37429288 4.104239941 0.000146017 -0.015756736 0.533159971 5.468660831 -0.005961995 -2.833607912 -2.093829155 6.996934891 -2.89963913 10.258972168 39.080669403 -23.967660904 -52.857006073 -16.821352005 -23.675373077 -104.752998352 16.216718674 -12.533073425 89.999992371 -8.538e-06 50.865077972 90.325492859 -50.219848633 -23.030315399 66.331413269 9.321493149 14.221421242 -90.000015259 -1.708e-06 103.901222229 -30.092006683 -43.799407959 -28.791654587 105.980224609 81.193840027 -106.032348633 -6.346078873 0.157551348 -2.262812853 -10.842162132 -42.063991547 -4.179574013 9.904243469 -39.62663269 30.102495193 -1.078675151 76.858833313 0.587821305 -1.531340122 5.026925564 2.257906914 11.152007103 -32.468521118 3.256350756 
-1.00924015 -0.664936066 77.634338379 16.892810822 0.172120064 4.615203857 2.2996e-05 -0.016494896 0.077390999 5.862027168 -0.010287946 -2.969418526 -2.166891813 6.799540997 -3.000309229 10.452010155 39.106266022 -24.394220352 -54.310012817 -19.123600006 -23.418386459 -106.085006714 12.05085659 -9.081455231 89.999969482 5.123e-06 49.728546143 87.433631897 -52.519317627 -24.390419006 67.480682373 7.260645866 10.852357864 -90.000022888 -2.0491e-05 105.726249695 -31.575431824 -42.894451141 -29.693414688 110.408287048 82.333488464 -110.395774841 -5.890428066 0.205751538 -1.512763023 -10.76568985 -42.766769409 -4.226069927 9.540211678 -39.405158997 29.301170349 -0.109523073 77.114646912 -0.364875376 -1.608949065 5.137123108 2.08514142 11.305978775 -32.998332977 3.35845232 
-1.014269948 -0.82919693 77.607330322 16.950057983 0.003461519 5.130810261 -0.000113965 -0.018581267 -0.350053012 6.346657753 -0.015952347 -3.096521616 -2.440346718 6.66151762 -3.374572277 10.330498695 39.282196045 -24.027854919 -55.45350647 -20.783479691 -23.280620575 -106.744003296 8.853629112 -6.58779335 90.0 3.415e-06 48.920730591 85.098991394 -54.044593811 -25.179994583 67.961685181 5.586966991 8.281096458 -90.000007629 -1.366e-05 106.714225769 -32.727554321 -42.111579895 -30.401357651 115.432426453 83.292060852 -115.358055115 -5.415377617 0.230052933 -0.930245399 -10.673446655 -43.360084534 -4.253596306 9.164457321 -39.127918243 28.524612427 0.48062405 77.113441467 -0.94534272 -1.621885896 5.187860489 1.952799082 11.387594223 -33.305114746 3.416152954 
-0.92265898 -0.860954285 77.662536621 16.865942001 -0.149068624 5.365171432 -0.000172004 -0.020387571 -0.480892986 6.762852669 -0.018469032 -3.195870161 -2.614639997 6.421791553 -3.609018564 10.192085266 39.513851166 -23.597455978 -56.215950012 -22.076900482 -23.228355408 -107.005996704 6.835851192 -5.060360432 89.999977112 1.708e-06 48.315322876 83.194160461 -55.349655151 -26.056386948 68.313308716 4.396226883 6.475683212 -90.000007629 -2.0491e-05 107.577636719 -33.426132202 -41.52280426 -30.608728409 120.993263245 84.331573486 -120.841308594 -4.886626244 0.265168667 -0.343716532 -10.447751999 -43.883495331 -4.218675137 8.96445179 -38.846660614 28.123783112 0.000874336 76.861404419 -0.473290861 -1.563908458 5.128416538 2.019194126 11.363868713 -33.184009552 3.395984888 
